<svg aria-hidden="true" style="position: absolute; width: 0; height: 0; overflow: hidden;" version="1.1" xmlns="http://www.w3.org/2000/svg" xmlns:xlink="http://www.w3.org/1999/xlink">
<defs>
<symbol id="icon-backblaze-svgrepo-com" viewBox="0 0 32 32">
<path fill="#e41e2a" style="fill: var(--color1, #e41e2a)" d="M32 16c0 8.837-7.163 16-16 16s-16-7.163-16-16c0-8.837 7.163-16 16-16s16 7.163 16 16z"></path>
<path fill="#fff" style="fill: var(--color2, #fff)" d="M14.087 6.423s2.667 2.338 2.31 4.406c-0.161 0.933-1.388 2.445-0.726 3.892 0.714 1.559 1.085 4.567-2.128 3.789-3.168-0.759-2.924-4.647-0.569-6.688s1.58-4.361 1.113-5.399zM16.52 13.438c-0.177 1.578 1.568 3.15 0.18 5.288-0.95 1.479 0.519 3.561 2.415 3.181 2.072-0.413 2.594-1.724 2.539-3.248-0.072-1.934-0.844-2.473-2.553-3.925-1.858-1.568-0.427-4.543-0.427-4.543s-1.948 1.511-2.154 3.247zM10.953 20.353c0.371 1.041 0.945 2.709 3.215 3.556 1.911 0.716 4.588 0.844 6.13-1.134 0.355-0.443-0.112-0.271-0.579-0.094-0.335 0.109-0.721 0.173-1.122 0.173-0.899 0-1.724-0.318-2.368-0.847l0.006 0.005c-1.313-1.094-0.8-2.319-1.458-2.333-2.17-0.047-3.302-0.894-3.888-1.615-0.133-0.17-0.338 1.167 0.063 2.289z"></path>
</symbol>
<symbol id="icon-svgviewer-output" viewBox="0 0 32 32">
<path fill="#4f0599" style="fill: var(--color3, #4f0599)" d="M32 16c0 8.837-7.163 16-16 16s-16-7.163-16-16c0-8.837 7.163-16 16-16s16 7.163 16 16z"></path>
<path fill="#fff" style="fill: var(--color2, #fff)" d="M19.069 15.406v3.813c-0.022 0.575-0.456 1.053-1.028 1.128h-2.666c-0.447-0.034-0.809-0.372-0.872-0.813-0.003-0.041-0.003-0.081 0-0.119 0.003-0.503 0.412-0.906 0.912-0.906h1.159c0.369 0 0.666-0.3 0.666-0.666v-2.412c-0.003-0.459 0.331-0.853 0.788-0.928h0.113c0.503-0.006 0.919 0.397 0.928 0.9v0.003zM14.762 16.566v-2.394c0-0.369 0.3-0.666 0.666-0.666h1.234c0.503 0 0.913-0.409 0.913-0.912 0.003-0.037 0.003-0.075 0-0.113-0.081-0.459-0.475-0.794-0.941-0.8h-2.641c-0.569 0.072-1.009 0.534-1.053 1.106v3.8c0 0.503 0.409 0.913 0.912 0.913h0.141c0.453-0.081 0.778-0.475 0.769-0.934zM22.762 13.706v7.625c-0.166 1.438-1.325 2.556-2.766 2.666h-5.053c-3.153-0.003-5.706-2.559-5.706-5.713v-7.256c0-1.672 1.356-3.028 3.028-3.028h4.788c3.153 0 5.706 2.556 5.706 5.706h0.003zM20.938 13.706c-0.003-2.141-1.738-3.875-3.881-3.881h-4.794c-0.659-0.003-1.197 0.528-1.2 1.188v7.272c0.012 2.137 1.744 3.863 3.881 3.866h4.959c0.522-0.066 0.941-0.469 1.028-0.988l0.006-7.456z"></path>
</symbol>
<symbol id="icon-vultr-seeklogocom" viewBox="0 0 37 32">
<path fill="#c9f4ff" style="fill: var(--color4, #c9f4ff)" d="M12.912 0.883c-0.333-0.545-0.924-0.878-1.562-0.883h-9.496c-1.024 0-1.853 0.83-1.853 1.853 0 0.349 0.098 0.692 0.282 0.988l2.445 3.592 12.224-2.648-2.039-2.904z"></path>
<path fill="#51b9ff" style="fill: var(--color5, #51b9ff)" d="M15.004 3.857c-0.337-0.545-0.93-0.878-1.571-0.883h-9.461c-0.693-0.032-1.346 0.328-1.689 0.932s-0.318 1.349 0.065 1.928l2.727 4.325 12.63-1.977-2.701-4.325z"></path>
<path fill="#007bfc" style="fill: var(--color6, #007bfc)" d="M4.96 9.982c-0.31-0.497-0.372-1.11-0.168-1.659 0.284-0.724 0.988-1.196 1.765-1.183h9.461c0.641 0.003 1.235 0.337 1.571 0.883l8.499 13.477c0.185 0.297 0.282 0.639 0.282 0.988-0.001 0.349-0.099 0.691-0.282 0.988l-4.748 7.528c-0.342 0.537-0.934 0.862-1.571 0.862s-1.229-0.325-1.571-0.862l-13.239-21.023z"></path>
<path fill="#007bfc" style="fill: var(--color6, #007bfc)" d="M28.895 14.289c0.342 0.537 0.934 0.862 1.571 0.862s1.229-0.325 1.571-0.862l1.633-2.586 3.115-4.942c0.185-0.297 0.282-0.639 0.282-0.988-0.001-0.349-0.099-0.691-0.282-0.988l-2.471-3.901c-0.337-0.545-0.93-0.878-1.571-0.883h-9.496c-0.492 0-0.963 0.195-1.311 0.543s-0.543 0.819-0.543 1.311c-0.003 0.351 0.098 0.695 0.291 0.988l7.211 11.447z"></path>
</symbol>
</defs>
</svg>
