<svg class="svg-logo" xmlns="http://www.w3.org/2000/svg" width="152" height="36" viewBox="0 0 152 36" alt="Vultr Logo">
		<g transform="translate(-10 -10)">
				<path class="svg-logo__text" d="M148,19.7c2.2-0.9,4-3.2,4-5.7c0-3.3-2.7-6-6-6h-9c-0.6,0-1,0.4-1,1v18c0,0.6,0.4,1,1,1h1c0.6,0,1-0.4,1-1v-7h6l4.3,7.5c0.2,0.3,0.5,0.5,0.9,0.5h0.7c0.6,0,1.1-0.5,1.1-1.1c0-0.2,0-0.4-0.1-0.5L148,19.7z M139,17v-6h6.8c1.7,0,3.2,1.3,3.2,3c0,1.8-1.2,3-3,3H139z M130,8h-15c-0.6,0-1,0.4-1,1v1c0,0.6,0.4,1,1,1h6v16c0,0.6,0.4,1,1,1h1c0.6,0,1-0.4,1-1V11h6c0.6,0,1-0.4,1-1V9C131,8.4,130.6,8,130,8z M114,25h-9V9c0-0.6-0.4-1-1-1c-0.1,0-0.9,0-1,0c-0.6,0-1,0.5-1,1.1v17.8c0,0.6,0.5,1.1,1,1.1H114c0.6,0,1-0.5,1-1.1c0-0.1,0-0.8,0-0.9C115,25.4,114.6,25,114,25z M96,8h-1c-0.6,0-1,0.4-1,1v11c0,2.9-2.1,5-5,5s-5-2.1-5-5V9c0-0.6-0.4-1-1-1h-1c-0.6,0-1,0.4-1,1l0,10.9c0,4.5,3.6,8.1,8,8.1c4.4,0,8-3.6,8-8.1L97,9C97,8.4,96.5,8,96,8z M76.9,8h-0.7c-0.4,0-0.8,0.3-1,0.7L69,24.1L62.8,8.7c-0.2-0.4-0.6-0.7-1-0.7h-0.7C60.5,8,60,8.5,60,9.1c0,0.1,0,0.3,0.1,0.4l7.2,17.9c0.2,0.4,0.6,0.7,1,0.7h1.4c0.4,0,0.8-0.3,1-0.7l7.2-17.9C78,9.3,78,9.2,78,9.1C78,8.5,77.5,8,76.9,8z" transform="translate(9 9)"></path>
				<g>
				<path class="svg-logo__shape-1" data-logo-dark-blue="" d="M23.473,9.97C23.105,9.387,22.455,9,21.715,9H11.077C9.929,9,9,9.93,9,11.077C9,11.484,9.117,11.864,9.32,12.185L14.557,20.493000000000002L28.71,18.278000000000002L23.473,9.97Z" style="opacity: 1;"></path>
				<path class="svg-logo__shape-2" data-logo-light-blue="" d="M25.655,13.431C25.287000000000003,12.847999999999999,24.636000000000003,12.460999999999999,23.897000000000002,12.460999999999999H13.259C12.112,12.460999999999999,11.182,13.390999999999998,11.182,14.537999999999998C11.182,14.945999999999998,11.299000000000001,15.325,11.502,15.645999999999999L14.557,20.491999999999997L28.709,18.276999999999997L25.655,13.431Z" style="opacity: 1;"></path>
				<path class="svg-logo__shape-3" fill="#FFFFFF" d="M14.557 20.493c-0.203-0.321-0.32-0.7-0.32-1.108 0-1.147 0.93-2.077 2.077-2.077h10.639c0.74 0 1.389 0.387 1.756 0.97l9.521 15.101c0.203 0.32 0.319 0.7 0.319 1.107 0 0.408-0.116 0.787-0.319 1.107l-5.32 8.438C32.543 44.613 31.893 45 31.154 45c-0.741 0-1.39-0.387-1.758-0.969L14.557 20.493z"></path>
				<path class="svg-logo__shape-3" d="M41.385 25.015c0.367 0.582 1.018 0.969 1.758 0.969s1.39-0.387 1.756-0.969l5.32-8.438c0.203-0.321 0.32-0.701 0.32-1.108 0-0.407-0.117-0.787-0.32-1.107l-2.77-4.392C47.082 9.387 46.432 9 45.691 9H35.055c-1.147 0-2.078 0.93-2.078 2.077 0 0.407 0.117 0.787 0.32 1.108L41.385 25.015z"></path>
				</g>
		</g>
</svg>